# xmcd
#
# Track frame offsets:
# 150
# 15335
# 31042
# 50967
# 69555
# 84780
# 102895
# 121970
# 138387
# 154470
# 172055
# 184447
# 197102
# 218855
# 237127
#
# Disc length: 3351 seconds
#
#
# Revision: 3
# Processed by: cddbd v1.5.2PL0 Copyright (c) Steve Scherf et al.
# Submitted via: FreeRIP 2.951 
#
DISCID=d00d150f
DTITLE=Chitãozinho and Xororó - Sem Limite [CD2)
DYEAR=2001
DGENRE=Sertanejo
TTITLE0=Alô
TTITLE1=Bailão De Peão
TTITLE2=Página Virada
TTITLE3=Coração Vazio (We're All Alone)
TTITLE4=Pura Emoção (Achy Breaky Heart)
TTITLE5=Brincar De Ser Feliz
TTITLE6=No Rancho Fundo
TTITLE7=Vou Tomá Um Pingão (Participação Especial: Leo Canhoto e Robertinho)
TTITLE8=Página De Amigos
TTITLE9=Se Deus Me Ouvisse (Ao Vivo)
TTITLE10=Sorriso Mudo
TTITLE11=Rebola (Ao Vivo)
TTITLE12=Somos Assim
TTITLE13=Peão De Rodeio
TTITLE14=Fio De Cabelo (Ao Vivo)
EXTD=kiroiva@hotmail.com
EXTT0=
EXTT1=
EXTT2=
EXTT3=
EXTT4=
EXTT5=
EXTT6=
EXTT7=
EXTT8=
EXTT9=
EXTT10=
EXTT11=
EXTT12=
EXTT13=
EXTT14=
PLAYORDER=
